<?xml version="1.0" ?><svg viewBox="0 0 64 64" xmlns="http://www.w3.org/2000/svg"><title/><g data-name="19-POSITIVE BOARD" id="_19-POSITIVE_BOARD"><path d="M52,7H40V4a1,1,0,0,0-1-1H25a1,1,0,0,0-1,1V7H12a1,1,0,0,0-1,1V60a1,1,0,0,0,1,1H52a1,1,0,0,0,1-1V8A1,1,0,0,0,52,7ZM25,13H47V51H17V13Zm1-8H38v6H26V5ZM51,59H13V9H24v2H16a1,1,0,0,0-1,1V52a1,1,0,0,0,1,1H48a1,1,0,0,0,1-1V12a1,1,0,0,0-1-1H40V9H51Z" style="fill:#FB9DA7"/><path d="M27,22h1.2a3.794,3.794,0,0,0,.444.944l-.884.884a1,1,0,1,0,1.414,1.414l.979-.979a4.05,4.05,0,0,0,.849.321V26a1,1,0,0,0,2,0V24.584a4.05,4.05,0,0,0,.849-.321l.979.98a1,1,0,0,0,1.414-1.414l-.885-.885A3.78,3.78,0,0,0,35.8,22H37a1,1,0,0,0,0-2H35.892a3.762,3.762,0,0,0-.434-1.044l.785-.784a1,1,0,0,0-1.414-1.414l-.8.8A4.024,4.024,0,0,0,33,17.137V16a1,1,0,0,0-2,0v1.137a4,4,0,0,0-1.032.417l-.8-.8a1,1,0,0,0-1.414,1.414l.784.784A3.749,3.749,0,0,0,28.108,20H27a1,1,0,0,0,0,2Zm3.586-2.414c.024-.024.033-.056.054-.081a2.084,2.084,0,0,1,2.72,0c.021.025.03.057.054.081a.854.854,0,0,0,.086.057A1.775,1.775,0,0,1,34,20.86a2.005,2.005,0,0,1-4,0,1.775,1.775,0,0,1,.5-1.217A.854.854,0,0,0,30.586,19.586Z" style="fill:#FB9DA7"/><path d="M20,35h2v2a1,1,0,0,0,2,0V35h2a1,1,0,0,0,0-2H24V31a1,1,0,0,0-2,0v2H20a1,1,0,0,0,0,2Z" style="fill:#FB9DA7"/><path d="M20,46h6a1,1,0,0,0,0-2H20a1,1,0,0,0,0,2Z" style="fill:#FB9DA7"/><path d="M35,31v6a1,1,0,0,0,1,1h6a1,1,0,0,0,1-1V31.424l1.755-2.018a1,1,0,0,0-1.51-1.312L41.588,30H36A1,1,0,0,0,35,31Zm6,5H37V34.492l1.5.872a1,1,0,0,0,1.259-.208L41,33.724Zm-1.151-4-1.06,1.219L37,32.175V32Z" style="fill:#FB9DA7"/><path d="M42,41H36a1,1,0,0,0-1,1v6a1,1,0,0,0,1,1h6a1,1,0,0,0,1-1V42A1,1,0,0,0,42,41Zm-1,6H37V43h4Z" style="fill:#FB9DA7"/></g></svg>